<mxfile host="app.diagrams.net" agent="Mozilla/5.0 (Windows NT 10.0; Win64; x64) AppleWebKit/537.36 (KHTML, like Gecko) Chrome/138.0.0.0 Safari/537.36" version="28.0.4">
  <diagram name="Page-1" id="S8onTnD6GA7OVCa5GSrC">
    <mxGraphModel dx="1634" dy="1136" grid="1" gridSize="10" guides="1" tooltips="1" connect="1" arrows="1" fold="1" page="1" pageScale="1" pageWidth="850" pageHeight="1100" math="0" shadow="0">
      <root>
        <mxCell id="0" />
        <mxCell id="1" parent="0" />
        <mxCell id="ARgBblpMmsPZ3KiA5aMk-1" value="&lt;font&gt;crm_prd_info&lt;/font&gt;" style="swimlane;fontStyle=0;childLayout=stackLayout;horizontal=1;startSize=30;horizontalStack=0;resizeParent=1;resizeParentMax=0;resizeLast=0;collapsible=1;marginBottom=0;whiteSpace=wrap;html=1;fontSize=13;fillColor=#b1ddf0;strokeColor=#10739e;rounded=1;swimlaneLine=0;" vertex="1" parent="1">
          <mxGeometry x="-163" y="274" width="140" height="60" as="geometry" />
        </mxCell>
        <mxCell id="ARgBblpMmsPZ3KiA5aMk-2" value="prd_key" style="text;align=left;verticalAlign=middle;spacingLeft=4;spacingRight=4;overflow=hidden;points=[[0,0.5],[1,0.5]];portConstraint=eastwest;rotatable=0;whiteSpace=wrap;html=1;fontSize=13;rounded=1;swimlaneLine=0;fillColor=none;strokeColor=none;" vertex="1" parent="ARgBblpMmsPZ3KiA5aMk-1">
          <mxGeometry y="30" width="140" height="30" as="geometry" />
        </mxCell>
        <mxCell id="ARgBblpMmsPZ3KiA5aMk-18" value="crm_sales_details" style="swimlane;fontStyle=0;childLayout=stackLayout;horizontal=1;startSize=30;horizontalStack=0;resizeParent=1;resizeParentMax=0;resizeLast=0;collapsible=1;marginBottom=0;whiteSpace=wrap;html=1;rounded=1;fillColor=#b1ddf0;strokeColor=#10739e;" vertex="1" parent="1">
          <mxGeometry x="-401" y="370" width="140" height="90" as="geometry" />
        </mxCell>
        <mxCell id="ARgBblpMmsPZ3KiA5aMk-19" value="prd_key" style="text;strokeColor=none;fillColor=none;align=left;verticalAlign=middle;spacingLeft=4;spacingRight=4;overflow=hidden;points=[[0,0.5],[1,0.5]];portConstraint=eastwest;rotatable=0;whiteSpace=wrap;html=1;rounded=1;" vertex="1" parent="ARgBblpMmsPZ3KiA5aMk-18">
          <mxGeometry y="30" width="140" height="30" as="geometry" />
        </mxCell>
        <mxCell id="ARgBblpMmsPZ3KiA5aMk-20" value="cast_id" style="text;strokeColor=none;fillColor=none;align=left;verticalAlign=middle;spacingLeft=4;spacingRight=4;overflow=hidden;points=[[0,0.5],[1,0.5]];portConstraint=eastwest;rotatable=0;whiteSpace=wrap;html=1;rounded=1;" vertex="1" parent="ARgBblpMmsPZ3KiA5aMk-18">
          <mxGeometry y="60" width="140" height="30" as="geometry" />
        </mxCell>
        <mxCell id="ARgBblpMmsPZ3KiA5aMk-22" value="crm_cust_info" style="swimlane;fontStyle=0;childLayout=stackLayout;horizontal=1;startSize=30;horizontalStack=0;resizeParent=1;resizeParentMax=0;resizeLast=0;collapsible=1;marginBottom=0;whiteSpace=wrap;html=1;rounded=1;fillColor=#b1ddf0;strokeColor=#10739e;" vertex="1" parent="1">
          <mxGeometry x="-158" y="459" width="140" height="90" as="geometry" />
        </mxCell>
        <mxCell id="ARgBblpMmsPZ3KiA5aMk-23" value="cst_id" style="text;strokeColor=none;fillColor=none;align=left;verticalAlign=middle;spacingLeft=4;spacingRight=4;overflow=hidden;points=[[0,0.5],[1,0.5]];portConstraint=eastwest;rotatable=0;whiteSpace=wrap;html=1;rounded=1;" vertex="1" parent="ARgBblpMmsPZ3KiA5aMk-22">
          <mxGeometry y="30" width="140" height="30" as="geometry" />
        </mxCell>
        <mxCell id="ARgBblpMmsPZ3KiA5aMk-24" value="cst_key" style="text;strokeColor=none;fillColor=none;align=left;verticalAlign=middle;spacingLeft=4;spacingRight=4;overflow=hidden;points=[[0,0.5],[1,0.5]];portConstraint=eastwest;rotatable=0;whiteSpace=wrap;html=1;rounded=1;" vertex="1" parent="ARgBblpMmsPZ3KiA5aMk-22">
          <mxGeometry y="60" width="140" height="30" as="geometry" />
        </mxCell>
        <mxCell id="ARgBblpMmsPZ3KiA5aMk-25" value="&lt;p&gt;Customer information&lt;/p&gt;" style="text;html=1;align=center;verticalAlign=middle;whiteSpace=wrap;rounded=0;fontSize=12;" vertex="1" parent="1">
          <mxGeometry x="-148" y="425" width="120" height="34" as="geometry" />
        </mxCell>
        <mxCell id="ARgBblpMmsPZ3KiA5aMk-28" value="Transactional Records about Sales &amp;amp; orders" style="text;html=1;align=center;verticalAlign=middle;whiteSpace=wrap;rounded=0;" vertex="1" parent="1">
          <mxGeometry x="-408" y="340" width="150" height="30" as="geometry" />
        </mxCell>
        <mxCell id="ARgBblpMmsPZ3KiA5aMk-29" value="Current &amp;amp; History Product Information" style="text;html=1;align=center;verticalAlign=middle;whiteSpace=wrap;rounded=0;" vertex="1" parent="1">
          <mxGeometry x="-163" y="244" width="140" height="30" as="geometry" />
        </mxCell>
        <mxCell id="ARgBblpMmsPZ3KiA5aMk-31" style="edgeStyle=orthogonalEdgeStyle;rounded=0;orthogonalLoop=1;jettySize=auto;html=1;entryX=-0.017;entryY=0.778;entryDx=0;entryDy=0;entryPerimeter=0;" edge="1" parent="1" source="ARgBblpMmsPZ3KiA5aMk-20" target="ARgBblpMmsPZ3KiA5aMk-23">
          <mxGeometry relative="1" as="geometry" />
        </mxCell>
        <mxCell id="ARgBblpMmsPZ3KiA5aMk-33" style="edgeStyle=orthogonalEdgeStyle;rounded=0;orthogonalLoop=1;jettySize=auto;html=1;entryX=0;entryY=0.5;entryDx=0;entryDy=0;" edge="1" parent="1" source="ARgBblpMmsPZ3KiA5aMk-19" target="ARgBblpMmsPZ3KiA5aMk-2">
          <mxGeometry relative="1" as="geometry" />
        </mxCell>
        <mxCell id="ARgBblpMmsPZ3KiA5aMk-34" value="erp_px_cat_g1v2" style="swimlane;fontStyle=0;childLayout=stackLayout;horizontal=1;startSize=30;horizontalStack=0;resizeParent=1;resizeParentMax=0;resizeLast=0;collapsible=1;marginBottom=0;whiteSpace=wrap;html=1;rounded=1;fillColor=#f0a30a;strokeColor=#BD7000;fontColor=#000000;" vertex="1" parent="1">
          <mxGeometry x="99" y="280" width="140" height="60" as="geometry" />
        </mxCell>
        <mxCell id="ARgBblpMmsPZ3KiA5aMk-35" value="id" style="text;strokeColor=none;fillColor=none;align=left;verticalAlign=middle;spacingLeft=4;spacingRight=4;overflow=hidden;points=[[0,0.5],[1,0.5]];portConstraint=eastwest;rotatable=0;whiteSpace=wrap;html=1;rounded=1;" vertex="1" parent="ARgBblpMmsPZ3KiA5aMk-34">
          <mxGeometry y="30" width="140" height="30" as="geometry" />
        </mxCell>
        <mxCell id="ARgBblpMmsPZ3KiA5aMk-42" value="erp_cust_az12" style="swimlane;fontStyle=0;childLayout=stackLayout;horizontal=1;startSize=30;horizontalStack=0;resizeParent=1;resizeParentMax=0;resizeLast=0;collapsible=1;marginBottom=0;whiteSpace=wrap;html=1;rounded=1;fillColor=#f0a30a;strokeColor=#BD7000;fontColor=#000000;" vertex="1" parent="1">
          <mxGeometry x="99" y="399" width="140" height="60" as="geometry" />
        </mxCell>
        <mxCell id="ARgBblpMmsPZ3KiA5aMk-50" style="edgeStyle=orthogonalEdgeStyle;rounded=0;orthogonalLoop=1;jettySize=auto;html=1;" edge="1" parent="ARgBblpMmsPZ3KiA5aMk-42" source="ARgBblpMmsPZ3KiA5aMk-43">
          <mxGeometry relative="1" as="geometry">
            <mxPoint x="-60" y="107" as="targetPoint" />
          </mxGeometry>
        </mxCell>
        <mxCell id="ARgBblpMmsPZ3KiA5aMk-43" value="cid" style="text;strokeColor=none;fillColor=none;align=left;verticalAlign=middle;spacingLeft=4;spacingRight=4;overflow=hidden;points=[[0,0.5],[1,0.5]];portConstraint=eastwest;rotatable=0;whiteSpace=wrap;html=1;rounded=1;" vertex="1" parent="ARgBblpMmsPZ3KiA5aMk-42">
          <mxGeometry y="30" width="140" height="30" as="geometry" />
        </mxCell>
        <mxCell id="ARgBblpMmsPZ3KiA5aMk-44" value="erp_loc_a101" style="swimlane;fontStyle=0;childLayout=stackLayout;horizontal=1;startSize=30;horizontalStack=0;resizeParent=1;resizeParentMax=0;resizeLast=0;collapsible=1;marginBottom=0;whiteSpace=wrap;html=1;rounded=1;fillColor=#f0a30a;strokeColor=#BD7000;fontColor=#000000;" vertex="1" parent="1">
          <mxGeometry x="99" y="516" width="140" height="60" as="geometry" />
        </mxCell>
        <mxCell id="ARgBblpMmsPZ3KiA5aMk-45" value="cid" style="text;strokeColor=none;fillColor=none;align=left;verticalAlign=middle;spacingLeft=4;spacingRight=4;overflow=hidden;points=[[0,0.5],[1,0.5]];portConstraint=eastwest;rotatable=0;whiteSpace=wrap;html=1;rounded=1;" vertex="1" parent="ARgBblpMmsPZ3KiA5aMk-44">
          <mxGeometry y="30" width="140" height="30" as="geometry" />
        </mxCell>
        <mxCell id="ARgBblpMmsPZ3KiA5aMk-46" value="Extra customer information(Birthdate)" style="text;html=1;align=center;verticalAlign=middle;whiteSpace=wrap;rounded=0;" vertex="1" parent="1">
          <mxGeometry x="124" y="250" width="90" height="30" as="geometry" />
        </mxCell>
        <mxCell id="ARgBblpMmsPZ3KiA5aMk-47" value="Extra Customer information (Birthdate)" style="text;html=1;align=center;verticalAlign=middle;whiteSpace=wrap;rounded=0;" vertex="1" parent="1">
          <mxGeometry x="104" y="370" width="130" height="30" as="geometry" />
        </mxCell>
        <mxCell id="ARgBblpMmsPZ3KiA5aMk-48" value="locationof customers(country)" style="text;html=1;align=center;verticalAlign=middle;whiteSpace=wrap;rounded=0;" vertex="1" parent="1">
          <mxGeometry x="119" y="489" width="90" height="30" as="geometry" />
        </mxCell>
        <mxCell id="ARgBblpMmsPZ3KiA5aMk-49" style="edgeStyle=orthogonalEdgeStyle;rounded=0;orthogonalLoop=1;jettySize=auto;html=1;entryX=1;entryY=0.5;entryDx=0;entryDy=0;" edge="1" parent="1" source="ARgBblpMmsPZ3KiA5aMk-45" target="ARgBblpMmsPZ3KiA5aMk-23">
          <mxGeometry relative="1" as="geometry" />
        </mxCell>
        <mxCell id="ARgBblpMmsPZ3KiA5aMk-51" style="edgeStyle=orthogonalEdgeStyle;rounded=0;orthogonalLoop=1;jettySize=auto;html=1;entryX=1;entryY=0.5;entryDx=0;entryDy=0;" edge="1" parent="1" source="ARgBblpMmsPZ3KiA5aMk-35" target="ARgBblpMmsPZ3KiA5aMk-2">
          <mxGeometry relative="1" as="geometry" />
        </mxCell>
        <mxCell id="ARgBblpMmsPZ3KiA5aMk-52" value="&lt;font style=&quot;font-size: 17px;&quot;&gt;Integration Model &lt;/font&gt;(how to tables are related)" style="text;html=1;align=center;verticalAlign=middle;resizable=0;points=[];autosize=1;strokeColor=none;fillColor=none;" vertex="1" parent="1">
          <mxGeometry x="-430" y="120" width="300" height="30" as="geometry" />
        </mxCell>
        <mxCell id="ARgBblpMmsPZ3KiA5aMk-53" value="" style="rounded=1;whiteSpace=wrap;html=1;fillColor=none;" vertex="1" parent="1">
          <mxGeometry x="-421" y="229" width="421" height="391" as="geometry" />
        </mxCell>
        <mxCell id="ARgBblpMmsPZ3KiA5aMk-54" value="Text" style="text;html=1;align=center;verticalAlign=middle;whiteSpace=wrap;rounded=0;" vertex="1" parent="1">
          <mxGeometry x="-240" y="214" width="60" height="30" as="geometry" />
        </mxCell>
        <mxCell id="ARgBblpMmsPZ3KiA5aMk-55" value="CRM" style="rounded=1;whiteSpace=wrap;html=1;fillColor=#b0e3e6;strokeColor=#0e8088;" vertex="1" parent="1">
          <mxGeometry x="-283" y="194" width="120" height="60" as="geometry" />
        </mxCell>
        <mxCell id="ARgBblpMmsPZ3KiA5aMk-56" value="" style="rounded=1;whiteSpace=wrap;html=1;fillColor=none;" vertex="1" parent="1">
          <mxGeometry x="30" y="235" width="320" height="375" as="geometry" />
        </mxCell>
        <mxCell id="ARgBblpMmsPZ3KiA5aMk-57" value="ERP" style="rounded=0;whiteSpace=wrap;html=1;fillColor=#f0a30a;strokeColor=#BD7000;fontColor=#000000;" vertex="1" parent="1">
          <mxGeometry x="124" y="184" width="120" height="60" as="geometry" />
        </mxCell>
      </root>
    </mxGraphModel>
  </diagram>
</mxfile>
